<svg xmlns="http://www.w3.org/2000/svg" width="480" height="480" viewBox="0 0 480 480">
  <rect width="100%" height="100%" fill="#f7f4ec"/>
  <ellipse cx="240" cy="280" rx="120" ry="38" fill="#e8e2d4" opacity="0.7"/>
  <path d="M240 120c-40 48-72 108-72 168 0 42 32 76 72 76s72-34 72-76c0-60-32-120-72-168z" fill="#f3e8a8" stroke="#c9b87a" stroke-width="1.2"/>
  <path d="M240 140c-18 28-32 62-32 96 0 24 14 44 32 44s32-20 32-44c0-34-14-68-32-96z" fill="#efe49a" opacity="0.85"/>
  <circle cx="210" cy="210" r="4" fill="#b8860b" opacity="0.35"/>
  <circle cx="268" cy="198" r="3" fill="#b8860b" opacity="0.3"/>
  <circle cx="248" cy="232" r="3.5" fill="#b8860b" opacity="0.28"/>
  <path d="M240 118v-24M228 130l-16-12M252 130l16-12" stroke="#9a8f6a" stroke-width="1.2" stroke-linecap="round" fill="none"/>
</svg>
